<?xml version="1.0" encoding="UTF-8" standalone="no"?>
<!DOCTYPE svg PUBLIC "-//W3C//DTD SVG 1.1//EN" "http://www.w3.org/Graphics/SVG/1.1/DTD/svg11.dtd">
<svg width="100%" height="100%" viewBox="0 0 1155 1050" version="1.1" xmlns="http://www.w3.org/2000/svg" xmlns:xlink="http://www.w3.org/1999/xlink" xml:space="preserve" xmlns:serif="http://www.serif.com/" style="fill-rule:evenodd;clip-rule:evenodd;stroke-linejoin:round;stroke-miterlimit:2;">
    <g id="Artboard1" transform="matrix(0.966288,0,0,0.920502,-13.0571,-300.896)">
        <rect x="13.513" y="326.883" width="1194.67" height="1139.67" style="fill:none;"/>
        <g transform="matrix(19.5603,0,0,20.5332,-6662.02,-8613.57)">
            <g transform="matrix(50,0,0,50,342.724,472.903)">
                <path d="M0.18,0L0.209,-0.215L0.125,-0.215L0.096,0L0.028,0L0.057,-0.215L0.006,-0.215L0.006,-0.275L0.065,-0.275L0.087,-0.437L0.037,-0.437L0.037,-0.497L0.095,-0.497L0.124,-0.712L0.192,-0.712L0.163,-0.497L0.247,-0.497L0.276,-0.712L0.344,-0.712L0.315,-0.497L0.366,-0.497L0.366,-0.437L0.307,-0.437L0.285,-0.275L0.335,-0.275L0.335,-0.215L0.277,-0.215L0.248,0L0.18,0ZM0.217,-0.275L0.239,-0.437L0.155,-0.437L0.133,-0.275L0.217,-0.275Z" style="fill-rule:nonzero;"/>
            </g>
            <g transform="matrix(50,0,0,50,361.324,472.903)">
                <path d="M0.144,-0.168C0.144,-0.143 0.151,-0.125 0.165,-0.114C0.178,-0.102 0.194,-0.096 0.213,-0.096C0.222,-0.096 0.23,-0.097 0.235,-0.1L0.189,-0.137L0.241,-0.199L0.282,-0.166L0.282,-0.544C0.282,-0.569 0.275,-0.587 0.262,-0.599C0.248,-0.61 0.232,-0.616 0.213,-0.616C0.194,-0.616 0.178,-0.61 0.165,-0.599C0.151,-0.587 0.144,-0.569 0.144,-0.544L0.144,-0.168ZM0.042,-0.544C0.042,-0.573 0.047,-0.598 0.057,-0.62C0.067,-0.642 0.08,-0.66 0.097,-0.675C0.113,-0.689 0.131,-0.7 0.152,-0.707C0.172,-0.714 0.192,-0.718 0.213,-0.718C0.234,-0.718 0.254,-0.714 0.275,-0.707C0.295,-0.7 0.313,-0.689 0.33,-0.675C0.346,-0.66 0.359,-0.642 0.369,-0.62C0.379,-0.598 0.384,-0.573 0.384,-0.544L0.384,-0.168C0.384,-0.14 0.379,-0.116 0.369,-0.095L0.432,-0.044L0.38,0.018L0.32,-0.031C0.289,-0.006 0.254,0.006 0.213,0.006C0.192,0.006 0.172,0.002 0.152,-0.005C0.131,-0.012 0.113,-0.023 0.097,-0.038C0.08,-0.052 0.067,-0.07 0.057,-0.091C0.047,-0.112 0.042,-0.138 0.042,-0.168L0.042,-0.544Z" style="fill-rule:nonzero;"/>
            </g>
            <g transform="matrix(50,0,0,50,382.624,472.903)">
                <path d="M0.032,-0.507L0.032,-0.566C0.032,-0.587 0.036,-0.606 0.044,-0.625C0.052,-0.644 0.063,-0.66 0.077,-0.674C0.091,-0.687 0.107,-0.698 0.126,-0.706C0.145,-0.714 0.165,-0.718 0.186,-0.718C0.211,-0.718 0.233,-0.713 0.254,-0.703C0.274,-0.693 0.291,-0.679 0.304,-0.661C0.311,-0.652 0.316,-0.643 0.321,-0.636C0.325,-0.628 0.328,-0.619 0.331,-0.61C0.336,-0.593 0.338,-0.57 0.338,-0.539C0.338,-0.522 0.338,-0.507 0.338,-0.496C0.337,-0.484 0.336,-0.474 0.335,-0.465C0.334,-0.456 0.332,-0.449 0.33,-0.443C0.328,-0.436 0.325,-0.43 0.322,-0.425L0.253,-0.307C0.248,-0.299 0.244,-0.291 0.241,-0.283C0.238,-0.274 0.236,-0.265 0.236,-0.256L0.236,-0.176L0.134,-0.176L0.134,-0.269C0.134,-0.284 0.136,-0.298 0.141,-0.311C0.146,-0.324 0.152,-0.337 0.159,-0.35L0.223,-0.454C0.228,-0.463 0.232,-0.472 0.234,-0.482C0.235,-0.492 0.236,-0.502 0.236,-0.512L0.236,-0.565C0.236,-0.579 0.231,-0.591 0.222,-0.601C0.212,-0.611 0.2,-0.616 0.186,-0.616C0.174,-0.616 0.162,-0.612 0.151,-0.603C0.14,-0.594 0.134,-0.582 0.134,-0.565L0.134,-0.507L0.032,-0.507ZM0.134,0L0.134,-0.102L0.236,-0.102L0.236,0L0.134,0Z" style="fill-rule:nonzero;"/>
            </g>
        </g>
        <g transform="matrix(1.54764,0,0,1.56653,-101.443,-515.951)">
            <g transform="matrix(217.796,0,0,217.796,84.2712,1205.57)">
                <path d="M0.245,0.205L0.245,-0.046L0.243,-0.046C0.232,-0.029 0.218,-0.017 0.203,-0.008C0.187,0.002 0.169,0.006 0.149,0.006C0.124,0.006 0.105,0.002 0.092,-0.007C0.078,-0.016 0.067,-0.027 0.058,-0.04C0.051,-0.051 0.047,-0.065 0.045,-0.082C0.043,-0.099 0.042,-0.126 0.042,-0.163L0.042,-0.356C0.042,-0.384 0.043,-0.406 0.046,-0.423C0.049,-0.44 0.053,-0.454 0.059,-0.465C0.076,-0.497 0.105,-0.513 0.148,-0.513C0.161,-0.513 0.172,-0.512 0.181,-0.509C0.19,-0.506 0.199,-0.503 0.206,-0.498C0.213,-0.493 0.22,-0.488 0.226,-0.482C0.232,-0.475 0.238,-0.468 0.245,-0.461L0.245,-0.507L0.347,-0.507L0.347,0.205L0.245,0.205ZM0.144,-0.156C0.144,-0.14 0.148,-0.126 0.155,-0.114C0.162,-0.102 0.175,-0.096 0.194,-0.096C0.209,-0.096 0.221,-0.101 0.231,-0.112C0.24,-0.122 0.245,-0.135 0.245,-0.151L0.245,-0.348C0.245,-0.367 0.24,-0.382 0.231,-0.394C0.222,-0.405 0.209,-0.411 0.194,-0.411C0.177,-0.411 0.164,-0.405 0.156,-0.392C0.148,-0.379 0.144,-0.363 0.144,-0.342L0.144,-0.156Z" style="fill-rule:nonzero;"/>
            </g>
            <g transform="matrix(217.796,0,0,217.796,168.994,1205.57)">
                <path d="M0.347,-0.507L0.347,0L0.245,0L0.245,-0.049L0.243,-0.049C0.232,-0.033 0.22,-0.02 0.205,-0.01C0.19,0.001 0.17,0.006 0.147,0.006C0.134,0.006 0.122,0.004 0.109,-0.001C0.096,-0.005 0.085,-0.012 0.075,-0.022C0.065,-0.032 0.057,-0.045 0.051,-0.061C0.045,-0.076 0.042,-0.095 0.042,-0.118L0.042,-0.507L0.144,-0.507L0.144,-0.156C0.144,-0.137 0.148,-0.123 0.157,-0.112C0.166,-0.101 0.178,-0.096 0.194,-0.096C0.213,-0.096 0.227,-0.102 0.234,-0.114C0.241,-0.126 0.245,-0.143 0.245,-0.166L0.245,-0.507L0.347,-0.507Z" style="fill-rule:nonzero;"/>
            </g>
            <g transform="matrix(217.796,0,0,217.796,253.717,1205.57)">
                <path d="M0.337,-0.215L0.135,-0.215L0.135,-0.146C0.135,-0.13 0.139,-0.118 0.149,-0.109C0.158,-0.1 0.17,-0.096 0.185,-0.096C0.204,-0.096 0.217,-0.102 0.224,-0.113C0.23,-0.124 0.234,-0.136 0.235,-0.147L0.337,-0.147C0.337,-0.102 0.323,-0.066 0.296,-0.039C0.283,-0.025 0.267,-0.014 0.248,-0.006C0.229,0.002 0.208,0.006 0.185,0.006C0.153,0.006 0.126,-0.001 0.104,-0.014C0.081,-0.027 0.064,-0.045 0.052,-0.067C0.045,-0.08 0.04,-0.096 0.037,-0.113C0.034,-0.13 0.033,-0.149 0.033,-0.17L0.033,-0.337C0.033,-0.358 0.034,-0.377 0.037,-0.394C0.04,-0.411 0.045,-0.427 0.052,-0.44C0.064,-0.462 0.081,-0.48 0.104,-0.493C0.126,-0.506 0.153,-0.513 0.185,-0.513C0.208,-0.513 0.23,-0.509 0.249,-0.501C0.268,-0.493 0.284,-0.482 0.297,-0.468C0.324,-0.438 0.337,-0.4 0.337,-0.355L0.337,-0.215ZM0.135,-0.295L0.235,-0.295L0.235,-0.353C0.235,-0.372 0.231,-0.387 0.222,-0.397C0.213,-0.406 0.2,-0.411 0.185,-0.411C0.17,-0.411 0.158,-0.406 0.149,-0.397C0.139,-0.387 0.135,-0.372 0.135,-0.353L0.135,-0.295Z" style="fill-rule:nonzero;"/>
            </g>
            <g transform="matrix(217.796,0,0,217.796,334.302,1205.57)">
                <path d="M0.227,-0.365C0.226,-0.382 0.221,-0.395 0.211,-0.404C0.2,-0.413 0.188,-0.417 0.175,-0.417C0.159,-0.417 0.147,-0.412 0.138,-0.402C0.129,-0.391 0.125,-0.379 0.125,-0.366C0.125,-0.357 0.127,-0.347 0.132,-0.339C0.137,-0.33 0.149,-0.321 0.168,-0.314L0.228,-0.29C0.266,-0.275 0.292,-0.255 0.307,-0.23C0.321,-0.205 0.328,-0.177 0.328,-0.147C0.328,-0.126 0.324,-0.106 0.317,-0.088C0.309,-0.069 0.298,-0.053 0.285,-0.039C0.272,-0.025 0.256,-0.014 0.237,-0.006C0.218,0.002 0.198,0.006 0.176,0.006C0.135,0.006 0.1,-0.007 0.072,-0.033C0.058,-0.046 0.047,-0.062 0.038,-0.081C0.029,-0.099 0.025,-0.122 0.024,-0.147L0.12,-0.147C0.122,-0.133 0.127,-0.12 0.135,-0.108C0.142,-0.096 0.156,-0.09 0.175,-0.09C0.19,-0.09 0.203,-0.095 0.215,-0.105C0.226,-0.114 0.232,-0.128 0.232,-0.145C0.232,-0.159 0.228,-0.171 0.221,-0.181C0.214,-0.191 0.2,-0.2 0.181,-0.207L0.132,-0.225C0.1,-0.237 0.075,-0.255 0.057,-0.279C0.038,-0.302 0.029,-0.331 0.029,-0.365C0.029,-0.386 0.033,-0.406 0.041,-0.425C0.049,-0.443 0.06,-0.459 0.074,-0.472C0.087,-0.485 0.103,-0.496 0.121,-0.503C0.139,-0.51 0.158,-0.513 0.179,-0.513C0.2,-0.513 0.219,-0.509 0.237,-0.502C0.254,-0.495 0.269,-0.484 0.282,-0.471C0.295,-0.458 0.305,-0.442 0.312,-0.424C0.319,-0.405 0.323,-0.386 0.323,-0.365L0.227,-0.365Z" style="fill-rule:nonzero;"/>
            </g>
            <g transform="matrix(217.796,0,0,217.796,410.966,1205.57)">
                <path d="M0.042,-0.507L0.042,-0.661L0.144,-0.661L0.144,-0.507L0.207,-0.507L0.207,-0.427L0.144,-0.427L0.144,-0.146C0.144,-0.134 0.145,-0.125 0.148,-0.118C0.15,-0.111 0.154,-0.106 0.159,-0.103C0.164,-0.1 0.171,-0.098 0.179,-0.097C0.186,-0.096 0.196,-0.096 0.207,-0.096L0.207,0L0.165,0C0.142,0 0.122,-0.004 0.107,-0.011C0.091,-0.018 0.078,-0.028 0.069,-0.039C0.06,-0.05 0.053,-0.063 0.049,-0.078C0.044,-0.092 0.042,-0.106 0.042,-0.119L0.042,-0.427L-0.009,-0.427L-0.009,-0.507L0.042,-0.507Z" style="fill-rule:nonzero;"/>
            </g>
            <g transform="matrix(217.796,0,0,217.796,455.396,1205.57)">
                <path d="M0.042,0L0.042,-0.507L0.144,-0.507L0.144,0L0.042,0ZM0.042,-0.61L0.042,-0.712L0.144,-0.712L0.144,-0.61L0.042,-0.61Z" style="fill-rule:nonzero;"/>
            </g>
            <g transform="matrix(217.796,0,0,217.796,495.906,1205.57)">
                <path d="M0.033,-0.337C0.033,-0.358 0.034,-0.377 0.037,-0.394C0.04,-0.411 0.045,-0.427 0.052,-0.44C0.064,-0.462 0.081,-0.48 0.104,-0.493C0.126,-0.506 0.153,-0.513 0.185,-0.513C0.217,-0.513 0.244,-0.506 0.267,-0.493C0.289,-0.48 0.306,-0.462 0.318,-0.44C0.325,-0.427 0.33,-0.411 0.333,-0.394C0.336,-0.377 0.337,-0.358 0.337,-0.337L0.337,-0.17C0.337,-0.149 0.336,-0.13 0.333,-0.113C0.33,-0.096 0.325,-0.08 0.318,-0.067C0.306,-0.045 0.289,-0.027 0.267,-0.014C0.244,-0.001 0.217,0.006 0.185,0.006C0.153,0.006 0.126,-0.001 0.104,-0.014C0.081,-0.027 0.064,-0.045 0.052,-0.067C0.045,-0.08 0.04,-0.096 0.037,-0.113C0.034,-0.13 0.033,-0.149 0.033,-0.17L0.033,-0.337ZM0.135,-0.154C0.135,-0.135 0.139,-0.12 0.149,-0.111C0.158,-0.101 0.17,-0.096 0.185,-0.096C0.2,-0.096 0.213,-0.101 0.222,-0.111C0.231,-0.12 0.235,-0.135 0.235,-0.154L0.235,-0.353C0.235,-0.372 0.231,-0.387 0.222,-0.397C0.213,-0.406 0.2,-0.411 0.185,-0.411C0.17,-0.411 0.158,-0.406 0.149,-0.397C0.139,-0.387 0.135,-0.372 0.135,-0.353L0.135,-0.154Z" style="fill-rule:nonzero;"/>
            </g>
            <g transform="matrix(217.796,0,0,217.796,576.491,1205.57)">
                <path d="M0.042,0L0.042,-0.507L0.144,-0.507L0.144,-0.458L0.146,-0.458C0.157,-0.474 0.169,-0.487 0.185,-0.498C0.2,-0.508 0.219,-0.513 0.242,-0.513C0.255,-0.513 0.267,-0.511 0.28,-0.507C0.293,-0.502 0.304,-0.495 0.314,-0.485C0.324,-0.475 0.332,-0.462 0.338,-0.447C0.344,-0.431 0.347,-0.412 0.347,-0.389L0.347,0L0.245,0L0.245,-0.351C0.245,-0.37 0.241,-0.384 0.232,-0.395C0.223,-0.406 0.211,-0.411 0.195,-0.411C0.176,-0.411 0.162,-0.405 0.155,-0.393C0.148,-0.381 0.144,-0.364 0.144,-0.341L0.144,0L0.042,0Z" style="fill-rule:nonzero;"/>
            </g>
            <g transform="matrix(217.796,0,0,217.796,661.214,1205.57)">
                <path d="M0.337,-0.215L0.135,-0.215L0.135,-0.146C0.135,-0.13 0.139,-0.118 0.149,-0.109C0.158,-0.1 0.17,-0.096 0.185,-0.096C0.204,-0.096 0.217,-0.102 0.224,-0.113C0.23,-0.124 0.234,-0.136 0.235,-0.147L0.337,-0.147C0.337,-0.102 0.323,-0.066 0.296,-0.039C0.283,-0.025 0.267,-0.014 0.248,-0.006C0.229,0.002 0.208,0.006 0.185,0.006C0.153,0.006 0.126,-0.001 0.104,-0.014C0.081,-0.027 0.064,-0.045 0.052,-0.067C0.045,-0.08 0.04,-0.096 0.037,-0.113C0.034,-0.13 0.033,-0.149 0.033,-0.17L0.033,-0.337C0.033,-0.358 0.034,-0.377 0.037,-0.394C0.04,-0.411 0.045,-0.427 0.052,-0.44C0.064,-0.462 0.081,-0.48 0.104,-0.493C0.126,-0.506 0.153,-0.513 0.185,-0.513C0.208,-0.513 0.23,-0.509 0.249,-0.501C0.268,-0.493 0.284,-0.482 0.297,-0.468C0.324,-0.438 0.337,-0.4 0.337,-0.355L0.337,-0.215ZM0.135,-0.295L0.235,-0.295L0.235,-0.353C0.235,-0.372 0.231,-0.387 0.222,-0.397C0.213,-0.406 0.2,-0.411 0.185,-0.411C0.17,-0.411 0.158,-0.406 0.149,-0.397C0.139,-0.387 0.135,-0.372 0.135,-0.353L0.135,-0.295Z" style="fill-rule:nonzero;"/>
            </g>
            <g transform="matrix(217.796,0,0,217.796,741.799,1205.57)">
                <path d="M0.144,-0.165C0.144,-0.144 0.148,-0.128 0.156,-0.115C0.164,-0.102 0.177,-0.096 0.194,-0.096C0.209,-0.096 0.222,-0.102 0.231,-0.114C0.24,-0.125 0.245,-0.14 0.245,-0.159L0.245,-0.356C0.245,-0.372 0.24,-0.385 0.231,-0.396C0.221,-0.406 0.209,-0.411 0.194,-0.411C0.175,-0.411 0.162,-0.405 0.155,-0.393C0.148,-0.381 0.144,-0.367 0.144,-0.351L0.144,-0.165ZM0.245,0L0.245,-0.046C0.238,-0.039 0.232,-0.032 0.226,-0.026C0.22,-0.019 0.213,-0.014 0.206,-0.009C0.199,-0.004 0.19,-0.001 0.181,0.002C0.172,0.005 0.161,0.006 0.148,0.006C0.105,0.006 0.076,-0.01 0.059,-0.042C0.053,-0.053 0.049,-0.067 0.046,-0.084C0.043,-0.101 0.042,-0.123 0.042,-0.151L0.042,-0.344C0.042,-0.381 0.043,-0.408 0.045,-0.425C0.049,-0.458 0.065,-0.483 0.092,-0.5C0.105,-0.509 0.124,-0.513 0.149,-0.513C0.169,-0.513 0.187,-0.509 0.203,-0.5C0.218,-0.491 0.232,-0.478 0.243,-0.461L0.245,-0.461L0.245,-0.712L0.347,-0.712L0.347,0L0.245,0Z" style="fill-rule:nonzero;"/>
            </g>
        </g>
    </g>
</svg>
